<?xml version="1.0" standalone="no"?><!DOCTYPE svg PUBLIC "-//W3C//DTD SVG 1.1//EN" "http://www.w3.org/Graphics/SVG/1.1/DTD/svg11.dtd"><svg t="1770016069907" class="icon" viewBox="0 0 1024 1024" version="1.1" xmlns="http://www.w3.org/2000/svg" p-id="38240" xmlns:xlink="http://www.w3.org/1999/xlink" width="200" height="200"><path d="M512 0a512 512 0 1 0 0 1024 512 512 0 0 0 0-1024z m234.427733 244.5312a29.0816 29.0816 0 0 1 11.4688 51.2L429.8752 623.752533a26.965333 26.965333 0 0 1-37.137067 0 33.5872 33.5872 0 0 1 0-37.137066l324.4032-331.639467a29.013333 29.013333 0 0 1 29.2864-10.4448z m42.052267 442.368c0 56.32-45.602133 101.853867-101.853867 101.853867H336.554667a101.853867 101.853867 0 0 1-101.853867-101.853867V336.964267c0-56.251733 45.602133-101.853867 101.853867-101.853867h196.608a26.487467 26.487467 0 0 1 29.559466 25.941333 29.559467 29.559467 0 0 1-28.535466 31.1296H336.6912a45.329067 45.329067 0 0 0-44.8512 44.782934v351.505066a45.329067 45.329067 0 0 0 44.8512 44.782934h350.4128a45.329067 45.329067 0 0 0 44.8512-44.782934V494.865067a29.559467 29.559467 0 0 1 29.559467-30.037334v-0.068266c14.7456 0 25.941333 13.789867 26.965333 32.085333v190.122667z" fill="#3385FF" p-id="38241"></path></svg>