<?xml version="1.0" standalone="no"?><!DOCTYPE svg PUBLIC "-//W3C//DTD SVG 1.1//EN" "http://www.w3.org/Graphics/SVG/1.1/DTD/svg11.dtd"><svg t="1770000627012" class="icon" viewBox="0 0 1024 1024" version="1.1" xmlns="http://www.w3.org/2000/svg" p-id="3107" xmlns:xlink="http://www.w3.org/1999/xlink" width="200" height="200"><path d="M588.6224 857.6840889h148.8c41.256 0 74.8224-33.792 74.8224-75.3312v-212.7696c0-5.2992 4.296-9.6192 9.5568-9.6192h68.2608c18.0864 0 34.2384-10.8624 41.16-27.6912a44.928 44.928 0 0 0-9.6672-48.8784L564.896 97.3496889a74.0448 74.0448 0 0 0-52.9008-22.056c-19.9968 0-38.784 7.8192-52.8912 22.056l-356.6688 386.0496a44.928 44.928 0 0 0-9.6528 48.8784c6.9216 16.8288 23.0688 27.6912 41.1552 27.6912h68.2608c5.2608 0 9.5568 4.3152 9.5568 9.6192v212.7696c0 41.5392 33.5568 75.3312 74.8032 75.3312h148.8144s15.8352-4.44 17.5008-35.2368V632.1368889h118.2336v190.3104s-4.2336 35.2368 17.5152 35.2368z" fill="#367DF6" p-id="3108"></path></svg>